PathFileType	4	(X/Y/Z)	D:\Share\Shared_Data\Ergonomics\Sit To Stand Pertubation\S0\Perturbed STS.trc
DataRate	CameraRate	NumFrames	NumMarkers	Units	OrigDataRate	OrigDataStartFrame	OrigNumFrames	
100	100	19	18	m	100	17561	251
Frame#	Time	R_Heel			R_ASIS			R_Pelvis			V_Sacral			L_Pelvis			L_ASIS			Clavical			R_Acromium			L_Acromium			Sternum			Torso			R_Thigh_Med			R_Thigh_Lat			R_Thigh			R_Shank_Med			R_Shank_Lat			R_Shank			R_Toe			
		X1	Y1	Z1	X2	Y2	Z2	X3	Y3	Z3	X4	Y4	Z4	X5	Y5	Z5	X6	Y6	Z6	X7	Y7	Z7	X8	Y8	Z8	X9	Y9	Z9	X10	Y10	Z10	X11	Y11	Z11	X12	Y12	Z12	X13	Y13	Z13	X14	Y14	Z14	X15	Y15	Z15	X16	Y16	Z16	X17	Y17	Z17	X18	Y18	Z18	

17561	131.95	0.15291962	0.041447968	0.11341049	0.17988551	0.86448157	0.15183295	0.072493011	0.92793671	0.20308897	-0.06608371	0.963258	-0.018850361	0.062481049	0.90683209	-0.20595244	0.17014003	0.84425781	-0.16060484	0.42877957	1.1692119	-0.019487623	0.40544653	1.2735905	0.10645633	0.3957959	1.2825704	-0.16162793	0.40233463	1.0768551	-0.038415295	0.40411932	1.1358118	-0.13462625	0.32361044	0.48580685	0.0316929	0.32945065	0.50317502	0.16526279	0.3244296	0.65796936	0.094440651	0.25282585	0.098035957	0.064618637	0.19847185	0.085805275	0.15684006	0.27120605	0.3065621	0.17777783	0.38057559	0.045066814	0.10300323
17562	131.96	0.15290602	0.041430935	0.11352518	0.18159303	0.86726147	0.15243927	0.074384621	0.93087671	0.20365175	-0.064104324	0.96602448	-0.01826116	0.064265976	0.90967169	-0.20551193	0.17175308	0.84708124	-0.15998357	0.4291279	1.1744089	-0.019228527	0.40502899	1.2784043	0.10708904	0.39531543	1.2875586	-0.16148689	0.4029274	1.0819447	-0.038277206	0.40472513	1.1408284	-0.13454062	0.3231651	0.48610547	0.031972006	0.32894366	0.50335092	0.16549564	0.325255	0.65815991	0.094975334	0.25276256	0.098101028	0.064742668	0.19842513	0.085761551	0.15696313	0.27085748	0.30663602	0.17801419	0.38060361	0.044988609	0.10304943
17563	131.97	0.15286951	0.041402222	0.11364496	0.1833329	0.87004578	0.15305602	0.07627681	0.93380084	0.20420999	-0.062098503	0.96877216	-0.017688568	0.066108406	0.91253564	-0.20507225	0.17334143	0.84991327	-0.15938615	0.42943512	1.1796577	-0.01895767	0.40453455	1.2832426	0.10773367	0.39480011	1.2925907	-0.16133804	0.40348892	1.0870885	-0.038149017	0.40530814	1.1458977	-0.13445789	0.32268027	0.48640173	0.032240562	0.32841824	0.50353329	0.16571341	0.32605734	0.65835028	0.095482536	0.25267419	0.098174301	0.064870155	0.19835872	0.085715721	0.15708934	0.27048715	0.30671368	0.17825757	0.38058456	0.044962933	0.10307885
17564	131.98	0.1528082	0.041362873	0.11377161	0.18510919	0.87283453	0.15368106	0.0781689	0.93670129	0.20476804	-0.060066257	0.97150055	-0.017135666	0.068006073	0.91542212	-0.20463597	0.17492711	0.85276007	-0.1588078	0.42969968	1.1849575	-0.0186712	0.40397531	1.2881052	0.10839103	0.39425372	1.2976636	-0.16117921	0.40403925	1.0922844	-0.03801738	0.40585138	1.1510159	-0.13437878	0.32215536	0.48668845	0.03250264	0.32787622	0.50372141	0.16591988	0.32683984	0.65853522	0.095981071	0.25256216	0.098254913	0.065001633	0.19827359	0.085667061	0.15721782	0.27010065	0.30679224	0.17850612	0.38052197	0.044986115	0.10309178
17565	131.99	0.15272084	0.041314323	0.11390585	0.18692804	0.87563043	0.15431114	0.080061714	0.93957178	0.20532591	-0.058007645	0.97420837	-0.016604078	0.069957024	0.91832349	-0.20420712	0.17655217	0.85563104	-0.1582408	0.42992197	1.1903057	-0.018365761	0.40336234	1.29299	0.10906157	0.39367734	1.3027729	-0.16100775	0.40459634	1.0975277	-0.037867237	0.4063338	1.1561775	-0.13430321	0.32159363	0.48696072	0.032763592	0.32731863	0.50391376	0.1661212	0.32760406	0.65870892	0.096487411	0.25242978	0.098341782	0.065137321	0.19817184	0.085615158	0.15734782	0.26970477	0.30686951	0.17875909	0.38042224	0.045050568	0.10308995
17566	132	0.15260817	0.041257866	0.11404704	0.18879558	0.87843719	0.15494188	0.081958519	0.94240643	0.20587827	-0.055922787	0.97689362	-0.016094824	0.071959587	0.92122876	-0.20379008	0.17825554	0.858534	-0.15767975	0.43010489	1.1956987	-0.018039377	0.40270435	1.2978925	0.10974482	0.3930683	1.3079154	-0.16082069	0.40517419	1.1028116	-0.037685322	0.40674026	1.1613767	-0.13422993	0.32100214	0.48721762	0.033029182	0.32674518	0.50410843	0.16632497	0.32834909	0.65886627	0.097015198	0.25228075	0.098433861	0.065277344	0.19805614	0.085559822	0.15747948	0.2693053	0.3069436	0.17901534	0.38029272	0.045146439	0.10307658
17567	132.01	0.15247519	0.041194744	0.11419296	0.190714	0.88126031	0.15556657	0.083864861	0.94519989	0.20641537	-0.0538116	0.97955292	-0.015609396	0.074012001	0.92412695	-0.20338792	0.18004497	0.86146558	-0.15712349	0.43025314	1.2011317	-0.017691763	0.40200677	1.3028059	0.11043878	0.39242139	1.3130875	-0.16061488	0.40577905	1.1081288	-0.037463322	0.40706726	1.1666088	-0.13415663	0.3203902	0.48746219	0.033304718	0.32615335	0.50430304	0.16653918	0.32907367	0.65900311	0.097574524	0.25211888	0.098529984	0.065421776	0.19792963	0.085501198	0.15761407	0.26890497	0.30701239	0.17927213	0.3801416	0.045262928	0.10305637
17568	132.02	0.15233133	0.041126465	0.11434002	0.19267972	0.88410724	0.15617567	0.085786263	0.94794958	0.20692784	-0.051673557	0.98218164	-0.015150178	0.076112595	0.92700879	-0.20300185	0.18190579	0.86441541	-0.15657407	0.43037204	1.2065988	-0.017324211	0.40127078	1.3077219	0.11113969	0.39172977	1.3182855	-0.16038757	0.40640799	1.113472	-0.037199249	0.40732086	1.1718691	-0.13408051	0.31976752	0.48769974	0.033594147	0.325539	0.50449527	0.16677098	0.32978006	0.65911975	0.098169167	0.251948	0.098628822	0.06557045	0.19779559	0.085439766	0.15775356	0.26850217	0.30707526	0.17952719	0.37997714	0.045389877	0.10303471
17569	132.03	0.15218752	0.041054836	0.11448413	0.1946853	0.88698578	0.15675874	0.087725395	0.95065723	0.20741115	-0.04950766	0.98477441	-0.014720096	0.07826017	0.92986719	-0.2026322	0.18383824	0.86737915	-0.15603465	0.43046558	1.2120946	-0.016939018	0.40049316	1.312632	0.11184258	0.39098743	1.3235045	-0.16013741	0.40705176	1.1188348	-0.036896633	0.40751239	1.1771538	-0.13399878	0.31914304	0.4879368	0.033899193	0.32489764	0.50468362	0.16702592	0.33047559	0.65922418	0.098796135	0.25177165	0.098729187	0.065722969	0.19765707	0.085376602	0.15789955	0.26809149	0.30713422	0.17978142	0.37980676	0.045519047	0.10301701
17570	132.04	0.15205197	0.040981853	0.1146217	0.196722	0.88989996	0.15730807	0.08968232	0.95332837	0.20786617	-0.047312714	0.98732465	-0.014321282	0.080454346	0.93269568	-0.20228008	0.18586232	0.87035944	-0.15550832	0.43053552	1.2176129	-0.016538671	0.39966724	1.3175291	0.11254311	0.39019067	1.3287379	-0.1598647	0.40770181	1.1242113	-0.036562057	0.40765622	1.1824576	-0.13390891	0.31852704	0.48818039	0.034219055	0.32422675	0.50486786	0.1673073	0.33117105	0.65933105	0.099449921	0.25159354	0.098830246	0.065878731	0.19751683	0.085313354	0.15805219	0.26766608	0.30719302	0.18003862	0.37963693	0.045644386	0.10300839
17571	132.05	0.15192871	0.040909618	0.11475034	0.19878203	0.89284454	0.15782172	0.09165905	0.95596649	0.20829642	-0.045088078	0.98982593	-0.01395362	0.082695801	0.93548834	-0.2019472	0.18798248	0.87335297	-0.15499794	0.43058102	1.2231455	-0.016125128	0.39878461	1.3224084	0.11323977	0.38933926	1.3339767	-0.15957117	0.40835291	1.1295959	-0.036202545	0.40776801	1.1877739	-0.13380826	0.31793295	0.4884382	0.034551109	0.32352682	0.50504929	0.16761536	0.3318775	0.65945374	0.10012547	0.25141812	0.098931328	0.066037018	0.19737747	0.085251724	0.15820992	0.26722043	0.30725555	0.18030202	0.37947336	0.045761246	0.10301355
17572	132.06	0.15181912	0.040840267	0.11486889	0.20086348	0.89580554	0.1583028	0.093664261	0.95856818	0.20870628	-0.042834068	0.99227173	-0.013614832	0.084985992	0.93824078	-0.20163448	0.190168	0.87634253	-0.15450655	0.43059967	1.2286835	-0.01569923	0.39783826	1.3272672	0.11393455	0.3884364	1.3392096	-0.15925937	0.40900067	1.1349828	-0.035823799	0.40786392	1.1930946	-0.13369398	0.31737326	0.48871478	0.034891895	0.32280286	0.50522995	0.16794629	0.33260266	0.65959625	0.1008167	0.25125078	0.099031494	0.066197029	0.19724176	0.085193115	0.15836966	0.2667525	0.30732413	0.18057178	0.37932114	0.045865635	0.10303643
17573	132.07	0.15172368	0.040775852	0.11497716	0.20297267	0.89876538	0.15875566	0.095712738	0.96112183	0.20909993	-0.040551678	0.99465576	-0.013301928	0.087326469	0.94095093	-0.2013407	0.19238045	0.87930676	-0.1540381	0.4305881	1.234217	-0.015260503	0.39682388	1.3321045	0.11463154	0.38748782	1.3444241	-0.1589321	0.40963898	1.1403649	-0.035429142	0.40795856	1.1984098	-0.13356276	0.31685321	0.48900787	0.035237381	0.32206348	0.50541245	0.16829158	0.33334937	0.65975085	0.10151386	0.25109685	0.099129356	0.066357796	0.19711275	0.085138405	0.15852724	0.26626425	0.30739917	0.18084482	0.37918488	0.045954109	0.10307942
17574	132.08	0.15164249	0.040718189	0.11507535	0.20511934	0.90170923	0.15918318	0.097818115	0.96361279	0.20947958	-0.038242153	0.99697205	-0.013012209	0.089717743	0.94361768	-0.20106334	0.19461742	0.88223645	-0.15359824	0.43054324	1.2397357	-0.014807608	0.39573965	1.3369194	0.11533512	0.38650037	1.3496078	-0.15859233	0.41026019	1.1457341	-0.035019253	0.40806302	1.203709	-0.13341093	0.31637027	0.48930908	0.03558215	0.32132043	0.5055983	0.16863809	0.33411566	0.65990161	0.10220364	0.25096062	0.099223228	0.066517998	0.19699309	0.085088005	0.15867818	0.26576129	0.3074801	0.18111571	0.37906802	0.046023975	0.10314291
17575	132.09	0.1515755	0.04066888	0.11516373	0.20730984	0.90462622	0.15958762	0.099984825	0.96602985	0.20984387	-0.035907253	0.99921423	-0.012743541	0.092158638	0.94624042	-0.20079997	0.19691565	0.88513733	-0.15319321	0.43046225	1.24523	-0.014339211	0.394586	1.3417109	0.11604877	0.38548016	1.354748	-0.15824283	0.41085733	1.1510819	-0.034592873	0.40818317	1.2089816	-0.133235	0.31591934	0.48960892	0.03591885	0.32058679	0.50578708	0.16896953	0.33489511	0.66003223	0.1028721	0.25084445	0.099311417	0.066676003	0.19688385	0.085042061	0.15881831	0.26525162	0.3075658	0.18137788	0.37897299	0.046073185	0.10322573
17576	132.1	0.15152257	0.040629185	0.1152423	0.20954379	0.90750848	0.15997241	0.10220584	0.96836774	0.21018831	-0.033549465	1.0013766	-0.012494333	0.094646492	0.94881799	-0.20054927	0.1993157	0.88801898	-0.15282785	0.43034259	1.2506907	-0.013854635	0.39336569	1.3464769	0.11677488	0.38443173	1.3598335	-0.15788609	0.4114256	1.1563994	-0.034147926	0.40831888	1.2142168	-0.13303268	0.3154968	0.48990051	0.036238743	0.31987485	0.50597632	0.16927025	0.33567886	0.66013007	0.10350735	0.25074921	0.099392448	0.066829811	0.19678474	0.085000679	0.1589442	0.26474408	0.30765558	0.18162474	0.37890198	0.046099625	0.10332597
17577	132.11	0.15148372	0.040600037	0.11531062	0.21181647	0.9103504	0.1603418	0.10446658	0.9706261	0.21050677	-0.03117182	1.0034547	-0.012263286	0.097177994	0.95134888	-0.20031099	0.2018382	0.89088745	-0.15250404	0.43018201	1.2561107	-0.013354298	0.39208411	1.3512141	0.11751476	0.38335712	1.3648542	-0.15752422	0.41196317	1.1616782	-0.033682289	0.40846442	1.2194056	-0.13280354	0.31510141	0.49017984	0.036532906	0.31919339	0.50616299	0.16953003	0.33645956	0.66018848	0.10409957	0.25067538	0.099465065	0.066977051	0.19669473	0.08496418	0.15905298	0.26424612	0.30774924	0.18185066	0.37885779	0.04610051	0.10344193
17578	132.12	0.15145935	0.040582035	0.11536785	0.2141255	0.91314685	0.16069844	0.1067505	0.97280634	0.21079346	-0.028777138	1.0054449	-0.012049125	0.09974929	0.95383093	-0.20008534	0.20448578	0.89374554	-0.15222015	0.42997839	1.261483	-0.012839904	0.39074878	1.3559189	0.11826864	0.3822562	1.3698021	-0.15715891	0.41247055	1.1669115	-0.033194286	0.40860913	1.2245399	-0.13255006	0.31473285	0.49044482	0.036793522	0.31854596	0.50634448	0.16974538	0.33723508	0.66020563	0.10464045	0.2506237	0.099528076	0.06711496	0.19661278	0.084932899	0.15914259	0.26376215	0.3078472	0.18205144	0.37884344	0.046072124	0.10357245
17579	132.13	0.15145015	0.040575535	0.11541297	0.21647472	0.91589325	0.16104204	0.10904326	0.97491052	0.21104425	-0.026367517	1.007346	-0.011850612	0.10235581	0.95626117	-0.19987279	0.20725066	0.89659479	-0.15197159	0.42972992	1.2668025	-0.012314187	0.38936816	1.3605873	0.1190359	0.38112717	1.3746713	-0.15679132	0.41294983	1.1720938	-0.032682835	0.40873999	1.2296134	-0.13227777	0.31439032	0.49069397	0.03701503	0.31793182	0.50651913	0.1699162	0.33800909	0.66018414	0.10512318	0.25059509	0.099580322	0.067240379	0.19653825	0.084907066	0.15921156	0.26329251	0.30794998	0.18222386	0.37886166	0.046010574	0.10371672
